{"title":"Le Camion (Marguerite Duras, 1977)","uid":8186065,"size":944776398,"categoryP":"video","categoryS":"movies","magnet":"?xt=urn:btih:83e4d32fcb588cc0e8de31a32dfaebdf1578c790&amp;dn=Le+Camion+%28Marguerite+Duras%2C+1977%29&amp;tr=udp%3A%2F%2Ftracker.openbittorrent.com%3A80&amp;tr=udp%3A%2F%2Fopen.demonii.com%3A1337&amp;tr=udp%3A%2F%2Ftracker.coppersurfer.tk%3A6969&amp;tr=udp%3A%2F%2Fexodus.desync.com%3A6969","seeders":7,"leechers":0,"uploader":"tonioferah","files":4,"time":1361726372,"description":"We are confronted with two images, a lorry driving through the night until dawn, a depiction of the loneliness and determination of the long-distance driver, and, intercut with it, an all-night conversation between Marguerite Duras herself and her young collaborator and lover, who are writing the script together, imagining the lorry- driver and discussing the emotions they are trying to depict and their method in doing so. Two frustrations, that of their creative imaginations, and the that of the driver they are depicting, become identified.\n\n__________________________________________\n\n\nGeneral\nComplete name                    : Le.camion.1977.DVDRip.XviD.avi\nFormat                           : AVI\nFormat/Info                      : Audio Video Interleave\nFile size                        : 901 MiB\nDuration                         : 1h 15mn\nOverall bit rate                 : 1 658 Kbps\nWriting application              : VirtualDubMod 1.5.10.2 (build 2540/release)\nWriting library                  : VirtualDubMod build 2540/release\n\nVideo\nID                               : 0\nFormat                           : MPEG-4 Visual\nFormat profile                   : Advanced Simple@L5\nFormat settings, BVOP            : Yes\nFormat settings, QPel            : No\nFormat settings, GMC             : No warppoints\nFormat settings, Matrix          : Default (MPEG)\nCodec ID                         : XVID\nCodec ID/Hint                    : XviD\nDuration                         : 1h 15mn\nBit rate                         : 1 522 Kbps\nWidth                            : 704 pixels\nHeight                           : 384 pixels\nDisplay aspect ratio             : 16:9\nFrame rate                       : 25.000 fps\nColor space                      : YUV\nChroma subsampling               : 4:2:0\nBit depth                        : 8 bits\nScan type                        : Progressive\nCompression mode                 : Lossy\nBits/(Pixel*Frame)               : 0.225\nStream size                      : 827 MiB (92%)\nWriting library                  : XviD 64\n\nAudio\nID                               : 1\nFormat                           : MPEG Audio\nFormat version                   : Version 1\nFormat profile                   : Layer 3\nCodec ID                         : 55\nCodec ID/Hint                    : MP3\nDuration                         : 1h 15mn\nBit rate mode                    : Variable\nBit rate                         : 124 Kbps\nMinimum bit rate                 : 32.0 Kbps\nChannel(s)                       : 2 channels\nSampling rate                    : 48.0 KHz\nCompression mode                 : Lossy\nStream size                      : 67.3 MiB (7%)\nAlignment                        : Aligned on interleaves\nInterleave, duration             : 24 ms (0.60 video frame)\nInterleave, preload duration     : 148 ms\nWriting library                  : LAME3.97 \nEncoding settings                : -m s -V 5 -q 2 -lowpass 16 --vbr-new -b 32\n\n__________________________________________\n\n\n*English subtitles are machine translated","torrent":{"xt":"urn:btih:83e4d32fcb588cc0e8de31a32dfaebdf1578c790","amp;dn":"Le+Camion+%28Marguerite+Duras%2C+1977%29","amp;tr":["udp%3A%2F%2Ftracker.openbittorrent.com%3A80","udp%3A%2F%2Fopen.demonii.com%3A1337","udp%3A%2F%2Ftracker.coppersurfer.tk%3A6969","udp%3A%2F%2Fexodus.desync.com%3A6969"],"infoHash":"83e4d32fcb588cc0e8de31a32dfaebdf1578c790","infoHashBuffer":{"type":"Buffer","data":[131,228,211,47,203,88,140,192,232,222,49,163,45,250,235,223,21,120,199,144]},"announce":[],"urlList":[]}}